PathFileType	4	(X/Y/Z)	c:/Users/goper/Files/vsCode/490R/osim_files/A03/A03_Static02.trc
DataRate	CameraRate	NumFrames	NumMarkers	Units                	OrigDataRate	OrigDataStartFrame	OrigNumFrames
250.00	250.00	5	36	mm	250.0	1	2227
                Frame#	Time	LPSIS			LASIS			LTH1			LTH2			LTH3			LTH4			LLFE			LMFE			LSH1			LSH2			LSH3			LSH4			LLMAL			LMMAL			LCAL			LMTP5			LTOE			LMTP1			RPSIS			RASIS			RTH1			RTH2			RTH3			RTH4			RLFE			RMFE			RSH1			RSH2			RSH3			RSH4			RLMAL			RMMAL			RCAL			RMTP1			RTOE			RMTP5		
		X1	Y1	Z1	X2	Y2	Z2	X3	Y3	Z3	X4	Y4	Z4	X5	Y5	Z5	X6	Y6	Z6	X7	Y7	Z7	X8	Y8	Z8	X9	Y9	Z9	X10	Y10	Z10	X11	Y11	Z11	X12	Y12	Z12	X13	Y13	Z13	X14	Y14	Z14	X15	Y15	Z15	X16	Y16	Z16	X17	Y17	Z17	X18	Y18	Z18	X19	Y19	Z19	X20	Y20	Z20	X21	Y21	Z21	X22	Y22	Z22	X23	Y23	Z23	X24	Y24	Z24	X25	Y25	Z25	X26	Y26	Z26	X27	Y27	Z27	X28	Y28	Z28	X29	Y29	Z29	X30	Y30	Z30	X31	Y31	Z31	X32	Y32	Z32	X33	Y33	Z33	X34	Y34	Z34	X35	Y35	Z35	X36	Y36	Z36

1	0.00000	-364.23981	1053.43030	411.13708	-116.66749	989.27417	303.19922	-183.14519	646.90472	231.63429	-172.23944	604.80127	228.25325	-121.03999	653.48633	242.23448	-120.96146	609.65594	239.26169	-179.02612	558.77130	234.53119	-133.42023	529.71191	382.16656	-235.60033	478.49548	235.98682	-240.94360	430.30533	232.68782	-175.05902	464.45599	227.80934	-189.58900	419.18024	229.51361	-287.32913	104.09979	231.99956	-257.02838	104.51930	321.38431	-347.03329	86.06630	297.89066	-148.31746	41.83596	182.80931	-102.88663	68.33373	243.97366	-122.56030	47.88173	294.24866	-370.48596	1058.53284	491.86328	-128.07135	988.48224	605.81598	-219.48759	631.99408	673.73505	-212.62907	587.83459	669.65985	-157.85582	635.49329	676.50616	-158.37862	590.92358	671.84570	-192.30487	544.44458	661.69873	-135.34375	539.55560	548.17371	-249.96103	483.29599	659.04578	-259.48349	444.47406	673.49469	-191.64561	468.89221	674.29022	-210.34180	427.38037	686.50049	-287.89847	128.34235	660.84290	-244.97603	127.85550	585.41089	0.00000	0.00000	0.00000	-122.47477	48.02547	595.33185	-100.55060	71.46521	647.83508	-142.67653	43.20594	712.55017
2	0.00400	-364.19916	1053.40845	411.16815	-116.66969	989.24646	303.22849	-183.15492	646.89136	231.64458	-172.23686	604.79846	228.27441	-121.04250	653.50629	242.24799	-120.92820	609.66736	239.26790	-179.03557	558.75531	234.56488	-133.42146	529.70404	382.16043	-235.58820	478.49759	236.01180	-240.94415	430.30347	232.71742	-175.06981	464.44943	227.81857	-189.59108	419.18295	229.51900	-287.33487	104.11317	232.02660	-257.03989	104.52828	321.38614	-347.02048	86.05453	297.87109	-148.32359	41.82916	182.80360	-102.56103	68.62459	243.88560	-122.54386	47.90542	294.23044	-370.46188	1058.53235	491.90146	-128.03639	988.49463	605.83258	-219.44835	631.97650	673.75653	-212.56264	587.82941	669.68951	-157.77611	635.49731	676.51575	-158.31108	590.94397	671.87549	-192.25339	544.45099	661.73077	-135.32773	539.52448	548.22235	-249.92578	483.30209	659.06622	-259.46866	444.48309	673.50922	-191.62286	468.90335	674.31195	-210.25752	427.39725	686.50659	-287.91708	128.36234	660.86682	-244.99104	127.85480	585.42737	0.00000	0.00000	0.00000	-122.46658	48.02673	595.34430	-100.54369	71.48950	647.83209	-142.65378	43.19833	712.55487
3	0.00800	-364.16882	1053.41772	411.22726	-116.64926	989.26422	303.25671	-183.19385	646.89783	231.68448	-172.25421	604.81073	228.28140	-121.04740	653.48627	242.26584	-120.94555	609.65668	239.28683	-179.02330	558.76910	234.57289	-133.38887	529.73083	382.17853	-235.59982	478.50641	236.03030	-240.92978	430.31079	232.72087	-175.06602	464.45526	227.83328	-189.57893	419.20029	229.54332	-287.56473	104.20081	231.89638	-257.04169	104.53082	321.37088	-347.02444	86.06293	297.88635	-148.31149	41.84030	182.79404	-102.82797	68.41563	243.98860	-122.53989	47.91080	294.23389	-370.42188	1058.53772	491.93634	-127.99889	988.49603	605.84454	-219.38383	631.99615	673.78302	-212.50563	587.83411	669.70325	-157.72714	635.50195	676.52942	-158.26137	590.94543	671.88959	-192.21411	544.46198	661.75464	-135.26341	539.55566	548.22589	-249.88799	483.29239	659.07007	-259.42130	444.50772	673.52612	-191.57172	468.89371	674.30719	-210.22192	427.40121	686.53552	-287.87015	128.37401	660.85443	-244.97234	127.85314	585.42676	0.00000	0.00000	0.00000	-122.44375	48.02389	595.33075	-100.50546	71.47807	647.83575	-142.62785	43.18979	712.54852
4	0.01200	-364.16766	1053.44043	411.27063	-116.62394	989.26074	303.27704	-183.16158	646.90784	231.70953	-172.25180	604.80322	228.30827	-121.05638	653.49908	242.26146	-120.95947	609.66168	239.28874	-179.02330	558.77094	234.58862	-133.36572	529.71509	382.18198	-235.59297	478.50433	236.04587	-240.91580	430.31949	232.73480	-175.06073	464.47095	227.85156	-189.56590	419.20218	229.54019	-287.56488	104.20710	231.88707	-257.01892	104.53973	321.36780	-347.02765	86.07675	297.87613	-148.29823	41.84554	182.78981	-102.37920	68.69071	243.84668	-122.52100	47.93170	294.22345	-370.38620	1058.56079	491.98557	-127.88506	988.51636	605.89795	-219.32509	632.00696	673.79486	-212.46123	587.85199	669.71936	-157.69281	635.50531	676.55701	-158.21260	590.95142	671.93335	-192.15495	544.46014	661.77228	-135.25307	539.54224	548.26221	-249.84373	483.31802	659.08759	-259.39236	444.51764	673.53894	-191.51688	468.92151	674.33728	-210.15283	427.42715	686.51733	-287.83423	128.39342	660.86609	-244.98425	127.86990	585.45209	0.00000	0.00000	0.00000	-122.42783	48.02901	595.33710	-100.49411	71.46863	647.82574	-142.62874	43.19527	712.54364
5	0.01600	-364.16388	1053.44885	411.31812	-116.58038	989.25970	303.28342	-183.16231	646.91254	231.70793	-172.24962	604.80682	228.32616	-121.05315	653.50537	242.27872	-120.95815	609.67004	239.29243	-179.05510	558.78455	234.61736	-133.37842	529.73004	382.22134	-235.60957	478.52646	236.05370	-240.92349	430.32596	232.74890	-175.05392	464.46899	227.86568	-189.57291	419.22952	229.55669	-287.35583	104.11024	232.04370	-257.02280	104.53282	321.36389	-347.01508	86.08279	297.88135	-148.31667	41.84409	182.78076	-102.41697	68.67466	243.87747	-122.51531	47.92738	294.21152	-370.35129	1058.57776	492.05103	-125.51940	989.53455	606.25983	-219.29590	632.01770	673.79968	-212.43117	587.86212	669.73187	-157.63089	635.51892	676.57990	-158.17250	590.94562	671.93250	-192.11079	544.49347	661.78040	-135.20107	539.55463	548.27368	-249.80849	483.32648	659.10797	-259.35013	444.54608	673.57397	-191.43433	468.92557	674.33496	-210.14423	427.41022	686.52045	-287.83093	128.40619	660.88690	-244.94943	127.88175	585.45721	0.00000	0.00000	0.00000	-122.42548	48.03456	595.32446	-100.48083	71.45733	647.82733	-142.61981	43.17153	712.54156
